<?xml version="1.0" encoding="UTF-8"?>
<svg width="119px" height="48px" viewBox="0 0 119 48" version="1.1" xmlns="http://www.w3.org/2000/svg" xmlns:xlink="http://www.w3.org/1999/xlink">
    <!-- Generator: Sketch 55 (78076) - https://sketchapp.com -->
    <title>Combined Shape</title>
    <desc>Created with Sketch.</desc>
    <g id="Symbols" stroke="none" stroke-width="1" fill="none" fill-rule="evenodd">
        <g id="Header" transform="translate(0.000000, -11.000000)" fill="#181818">
            <g id="Bynk-for-white-bg-Copy" transform="translate(0.000000, 11.000000)">
                <g id="Logo/White-bg">
                    <path d="M115.139547,27.2342569 C117.262991,27.2342569 118.984383,28.9556487 118.984383,31.0790931 C118.984383,33.2025375 117.262991,34.9239293 115.139547,34.9239293 C113.016102,34.9239293 111.29471,33.2025375 111.29471,31.0790931 C111.29471,28.9556487 113.016102,27.2342569 115.139547,27.2342569 Z M103.559522,22.305688 C106.991314,25.3165199 109.170727,29.7702739 109.170727,34.7354334 L101.367885,34.7354334 C101.367885,30.1025374 97.6902006,26.3315471 93.153586,26.2850658 L93.153586,34.7354334 L85.3508533,34.7354334 L85.3508533,0 L93.153586,0 L93.153586,18.3264214 C97.6902006,18.2799401 101.367885,14.5089498 101.367885,9.87605374 L109.170727,9.87605374 C109.170727,14.8412132 106.991314,19.2949672 103.559522,22.305688 Z M69.950025,9.73905621 C76.671837,9.73905621 80.7655623,14.7585922 80.7655623,21.6073564 L80.7655623,34.7354334 L72.9396919,34.7354334 L72.9396919,21.6073564 C72.9396919,19.1553009 71.3053232,17.1597184 68.8986812,17.1597184 C66.49193,17.1597184 64.2099256,19.1553009 64.2099256,21.6073564 L64.2099256,34.7354334 L56.3839462,34.7354334 L56.3839462,9.73905621 L63.7352766,9.73905621 L63.7352766,11.7583241 C65.4804222,10.5072209 67.5457841,9.73905621 69.950025,9.73905621 Z M44.3533554,22.2414148 L44.3533554,9.73905621 L52.1792257,9.73905621 L52.1792257,22.2414148 C52.1792257,22.2580947 52.1768246,22.2742186 52.1767155,22.2908985 L52.1792257,22.2908985 L52.1671112,36.1243125 C51.9144525,42.7132041 46.5776248,47.9947255 40.0501908,47.9947255 C36.8975781,47.9947255 33.910858,46.7683086 31.6402042,44.5414316 L37.056704,38.8076626 C37.864666,39.6000687 38.9279061,40.0364148 40.0501908,40.0364148 C42.3314312,40.0364148 44.2003413,38.2233103 44.3533554,35.9374977 L44.3533554,33.8247112 C42.9959835,34.3575782 41.5279439,34.6619307 39.9884176,34.6619307 C33.2664965,34.6619307 27.7976096,29.0901791 27.7976096,22.2414148 L27.7976096,9.73905621 L35.6235891,9.73905621 L35.6235891,22.2414148 C35.6235891,24.6934703 37.5817756,26.6882744 39.9884176,26.6882744 C42.3951688,26.6882744 44.3533554,24.6934703 44.3533554,22.2414148 Z M12.4106509,9.36163886 C19.2537057,9.36163886 24.8211925,15.0351196 24.8211925,22.0081532 C24.8211925,28.9811868 19.2537057,34.653999 12.4106509,34.653999 C5.72911998,34.653999 0.278757098,29.2420557 0.0242777857,22.4961263 L0,22.4961263 L0,0 L7.96705064,0 L7.96705064,10.2141152 C9.34891595,9.67153908 10.8434214,9.36163886 12.4106509,9.36163886 Z M12.4106509,26.5357498 C14.8607388,26.5357498 16.8542512,24.5047388 16.8542512,22.0081532 C16.8542512,19.5115676 14.8607388,17.479888 12.4106509,17.479888 C9.96056305,17.479888 7.96705064,19.5115676 7.96705064,22.0081532 C7.96705064,24.5047388 9.96056305,26.5357498 12.4106509,26.5357498 Z" id="Combined-Shape"></path>
                </g>
            </g>
        </g>
    </g>
</svg>